# xmcd
#
# Track frame offsets:
#	150
#	15695
#	36537
#	47885
#	65137
#	77467
#	91254
#	106145
#	125152
#	138160
#	154925
#
# Disc length: 2273
#
# Revision: 1
# Processed by: cddbd v1.5.1PL0 Copyright (c) Steve Scherf et al.
# Submitted via: ExactAudioCopy v0.90b4
# Normalized: r0:TRMNUM
#
DISCID=9308df0b
DTITLE=Rogério Skylab - Skylab
DYEAR=1900
DGENRE=
TTITLE0=Motoserra
TTITLE1=Urubu
TTITLE2=Matador de Passarinho
TTITLE3=Matadouro de Almas
TTITLE4=Derrame
TTITLE5=No Cemitério
TTITLE6=Funérea
TTITLE7=Naquela Noite
TTITLE8=Vampiro Mordido
TTITLE9=Pedigree
TTITLE10=Carne Humana
EXTD=
EXTT0=
EXTT1=
EXTT2=
EXTT3=
EXTT4=
EXTT5=
EXTT6=
EXTT7=
EXTT8=
EXTT9=
EXTT10=
PLAYORDER=
